<svg width="77" height="56" viewBox="0 0 77 56" fill="none" xmlns="http://www.w3.org/2000/svg">
<mask id="path-1-inside-1" fill="white">
<path fill-rule="evenodd" clip-rule="evenodd" d="M73.6642 29.8688L54.3079 44.5108L54.2097 44.5937C53.3543 45.3876 52.3674 45.8817 51.234 46.0402C50.7891 46.1364 50.3452 46.187 49.915 46.1911C49.8781 46.1914 49.8413 46.194 49.8048 46.1994L33.0495 48.6595C30.6067 49.0199 28.1116 49.2032 25.6356 49.2032H9.8196C9.40083 49.2032 9.06134 48.8637 9.06134 48.4449V29.1661C9.06134 28.9188 9.18114 28.6867 9.38593 28.548C10.6826 27.6698 12.5692 26.5595 14.5831 25.7175C14.6099 25.7089 14.6367 25.7064 14.6635 25.6952C16.2112 25.0513 18.1147 24.4618 19.8589 24.4742C19.9188 24.4754 19.9787 24.4779 20.0399 24.4803C20.3038 24.489 20.5626 24.515 20.8164 24.5546C20.903 24.5683 20.9897 24.5819 21.0752 24.5992C21.3059 24.6475 21.529 24.7156 21.7471 24.7937C21.8299 24.8234 21.9154 24.8469 21.9957 24.8816C22.2813 25.003 22.5554 25.1479 22.8104 25.3349C25.2595 27.1269 28.3985 28.1151 31.6496 28.1151H36.6231C39.5122 28.1151 42.1449 29.4328 43.6672 31.641C43.8011 31.8342 43.9133 32.0187 44.0051 32.1921C44.0229 32.2255 44.0306 32.2527 44.0471 32.2862C44.1147 32.4224 44.1785 32.5562 44.218 32.6751C44.2282 32.7085 44.2282 32.732 44.2371 32.7642C44.2664 32.8732 44.2945 32.9797 44.297 33.0701C44.2983 33.1035 44.2843 33.1258 44.2817 33.1568C44.2741 33.2299 44.269 33.3042 44.2384 33.3574C44.2282 33.3748 44.2103 33.3921 44.1976 33.4082C44.1644 33.454 44.1262 33.4986 44.079 33.5407C44.0433 33.5717 43.9974 33.6026 43.9528 33.6336C43.9146 33.6608 43.875 33.6869 43.8291 33.7129C43.7743 33.7438 43.7106 33.7748 43.6455 33.8045C43.5894 33.8305 43.5321 33.8565 43.4709 33.88C43.4122 33.9036 43.3472 33.9246 43.2822 33.9469C43.1929 33.9767 43.1024 34.0064 43.0042 34.0324C42.9571 34.046 42.9048 34.0584 42.8538 34.072C42.7365 34.1005 42.6154 34.129 42.4879 34.1537C42.4254 34.1661 42.3566 34.1773 42.2903 34.1897C42.1806 34.2082 42.0697 34.2268 41.955 34.2441C41.5444 34.2999 41.0816 34.3395 40.5627 34.3544C40.1025 34.3482 39.6741 34.342 39.2992 34.342H26.9106C22.9187 34.342 20.5359 36.1934 20.5359 39.2957C20.5359 39.9806 21.1058 40.5341 21.8108 40.5341C22.5146 40.5341 23.0858 39.9806 23.0858 39.2957C23.0858 38.6827 23.0858 36.8188 26.9106 36.8188H39.2584C39.5389 36.8362 40.0833 36.861 40.7705 36.8362L41.5087 36.8486C41.612 36.8498 41.7089 36.8498 41.8122 36.851C42.6791 36.8659 43.5321 36.8746 44.3735 36.8783C44.5686 36.8795 44.7726 36.8845 44.9651 36.8845C45.178 36.8845 45.382 36.8808 45.5924 36.8795C45.7556 36.8783 45.9188 36.8771 46.082 36.8758C46.597 36.8709 47.1019 36.8597 47.6004 36.8449C47.7534 36.8399 47.909 36.8374 48.0607 36.8312C48.6905 36.8089 49.3063 36.7792 49.8966 36.7359C49.917 36.7334 49.9336 36.7322 49.954 36.7297C50.5035 36.6888 51.0326 36.6356 51.5426 36.5736C51.7147 36.5526 51.8766 36.5266 52.0423 36.503C52.398 36.4523 52.7436 36.3953 53.075 36.3321C53.2497 36.2987 53.4218 36.2628 53.5901 36.2244C53.9089 36.1538 54.2097 36.0721 54.5004 35.9854C54.6394 35.9445 54.7835 35.9074 54.9148 35.8615C55.319 35.7241 55.7014 35.5742 56.0393 35.3996L63.2733 31.1047C63.2797 31.101 63.2835 31.0961 63.2899 31.0923L67.0268 28.8718C72.2834 26.1881 72.8125 26.9089 73.8694 28.3381C74.2213 28.8136 74.1308 29.4824 73.6642 29.8688ZM6.51145 52.1602C6.51145 52.579 6.17197 52.9185 5.75319 52.9185H3.44487C3.0261 52.9185 2.68661 52.579 2.68661 52.1602V26.4312C2.68661 26.0124 3.0261 25.673 3.44487 25.673H5.75319C6.17197 25.673 6.51145 26.0124 6.51145 26.4312V27.5405V51.68V52.1602ZM15.83 22.645C15.6368 22.7027 15.4361 22.5495 15.4361 22.3479V5.90633C15.4361 5.48361 15.9386 5.34921 16.2576 5.62651L35.1213 22.0221C36.0507 22.8295 37.2185 23.2345 38.3851 23.2345C39.5517 23.2345 40.717 22.8295 41.6477 22.0221L60.5127 5.62642C60.8311 5.34969 61.3342 5.48447 61.3342 5.90633V28.922C61.3342 29.1896 61.1931 29.4373 60.9631 29.574L54.7758 33.2484C53.3525 33.9829 50.6267 34.269 47.8012 34.3663C47.2334 34.3858 46.8379 33.7666 46.8543 33.1988C46.8799 32.3139 46.5232 31.331 45.7862 30.2613C43.7883 27.3659 40.3638 25.6383 36.6231 25.6383H31.6496C28.9492 25.6383 26.356 24.8283 24.3454 23.3558C24.1044 23.18 23.8533 23.0289 23.5996 22.8902C23.5103 22.8419 23.4211 22.7973 23.3305 22.7527C23.1508 22.6648 22.9685 22.5855 22.7823 22.5149C22.5911 22.4394 22.3935 22.3762 22.192 22.3168C22.062 22.2796 21.9307 22.24 21.7981 22.2103C21.6106 22.1657 21.4194 22.1298 21.2256 22.1001C21.1899 22.0939 21.1542 22.0902 21.1198 22.0852C19.7199 21.8834 18.1364 22.0171 16.3757 22.4902C16.1934 22.5385 16.0124 22.5905 15.83 22.645ZM58.7345 3.38116C58.931 3.38116 58.9986 3.6188 58.8504 3.74766L39.9482 20.1768C39.0557 20.9508 37.7132 20.9508 36.822 20.1768L17.9196 3.74848C17.7709 3.61929 17.8387 3.38116 18.0357 3.38116H58.7345ZM75.9412 26.894C73.7049 23.8698 71.4394 23.8203 65.7684 26.7194L65.0296 27.1584C64.5241 27.4587 63.884 27.0944 63.884 26.5065V5.90633C63.884 4.49204 63.2695 3.21893 62.2955 2.30868C62.2904 2.30373 62.2891 2.29753 62.284 2.29258C62.2266 2.23933 62.159 2.20217 62.1004 2.1514C61.9193 1.99907 61.7383 1.84798 61.5381 1.72166C61.4374 1.65726 61.3278 1.61144 61.2232 1.55571C61.0435 1.45788 60.8688 1.35632 60.6763 1.28078C60.5195 1.21762 60.3537 1.18047 60.1918 1.13341C60.0401 1.09006 59.8947 1.03309 59.7366 1.00337C59.409 0.940211 59.0737 0.904297 58.7345 0.904297H18.0357C17.6953 0.904297 17.36 0.940211 17.0323 1.00337C16.8755 1.03309 16.7301 1.09006 16.5772 1.13341C16.4152 1.18047 16.2495 1.21762 16.0927 1.28078C15.9014 1.35632 15.7255 1.45788 15.5457 1.55571C15.4425 1.61144 15.3328 1.65726 15.2321 1.72166C15.0306 1.84798 14.8496 1.99907 14.6698 2.1514C14.6099 2.20217 14.5423 2.23933 14.485 2.29258C14.4799 2.29753 14.4786 2.30373 14.4735 2.30868C13.4994 3.21893 12.8862 4.49204 12.8862 5.90633V23.2616C12.8862 23.5601 12.7106 23.8301 12.4404 23.957C11.6435 24.3315 10.8986 24.7247 10.2314 25.1028C9.7147 25.3956 9.06134 25.0295 9.06134 24.4357V23.968C9.06134 23.544 8.71353 23.2023 8.28952 23.2099L0.881405 23.3425C0.467987 23.3499 0.136719 23.6872 0.136719 24.1007V54.6371C0.136719 55.0559 0.476202 55.3953 0.894976 55.3953H8.30309C8.72186 55.3953 9.06134 55.0559 9.06134 54.6371V52.4383C9.06134 52.0195 9.40083 51.68 9.8196 51.68H25.6356C28.2404 51.68 30.8642 51.4881 33.4332 51.1067L49.9591 48.6682C50.5609 48.6608 51.1716 48.5902 51.7134 48.4713C53.2357 48.2645 54.6891 47.5573 55.9233 46.4279L75.2489 31.8094L75.2795 31.7871C76.7827 30.5759 77.0734 28.4272 75.9412 26.894Z"/>
</mask>
<path fill-rule="evenodd" clip-rule="evenodd" d="M73.6642 29.8688L54.3079 44.5108L54.2097 44.5937C53.3543 45.3876 52.3674 45.8817 51.234 46.0402C50.7891 46.1364 50.3452 46.187 49.915 46.1911C49.8781 46.1914 49.8413 46.194 49.8048 46.1994L33.0495 48.6595C30.6067 49.0199 28.1116 49.2032 25.6356 49.2032H9.8196C9.40083 49.2032 9.06134 48.8637 9.06134 48.4449V29.1661C9.06134 28.9188 9.18114 28.6867 9.38593 28.548C10.6826 27.6698 12.5692 26.5595 14.5831 25.7175C14.6099 25.7089 14.6367 25.7064 14.6635 25.6952C16.2112 25.0513 18.1147 24.4618 19.8589 24.4742C19.9188 24.4754 19.9787 24.4779 20.0399 24.4803C20.3038 24.489 20.5626 24.515 20.8164 24.5546C20.903 24.5683 20.9897 24.5819 21.0752 24.5992C21.3059 24.6475 21.529 24.7156 21.7471 24.7937C21.8299 24.8234 21.9154 24.8469 21.9957 24.8816C22.2813 25.003 22.5554 25.1479 22.8104 25.3349C25.2595 27.1269 28.3985 28.1151 31.6496 28.1151H36.6231C39.5122 28.1151 42.1449 29.4328 43.6672 31.641C43.8011 31.8342 43.9133 32.0187 44.0051 32.1921C44.0229 32.2255 44.0306 32.2527 44.0471 32.2862C44.1147 32.4224 44.1785 32.5562 44.218 32.6751C44.2282 32.7085 44.2282 32.732 44.2371 32.7642C44.2664 32.8732 44.2945 32.9797 44.297 33.0701C44.2983 33.1035 44.2843 33.1258 44.2817 33.1568C44.2741 33.2299 44.269 33.3042 44.2384 33.3574C44.2282 33.3748 44.2103 33.3921 44.1976 33.4082C44.1644 33.454 44.1262 33.4986 44.079 33.5407C44.0433 33.5717 43.9974 33.6026 43.9528 33.6336C43.9146 33.6608 43.875 33.6869 43.8291 33.7129C43.7743 33.7438 43.7106 33.7748 43.6455 33.8045C43.5894 33.8305 43.5321 33.8565 43.4709 33.88C43.4122 33.9036 43.3472 33.9246 43.2822 33.9469C43.1929 33.9767 43.1024 34.0064 43.0042 34.0324C42.9571 34.046 42.9048 34.0584 42.8538 34.072C42.7365 34.1005 42.6154 34.129 42.4879 34.1537C42.4254 34.1661 42.3566 34.1773 42.2903 34.1897C42.1806 34.2082 42.0697 34.2268 41.955 34.2441C41.5444 34.2999 41.0816 34.3395 40.5627 34.3544C40.1025 34.3482 39.6741 34.342 39.2992 34.342H26.9106C22.9187 34.342 20.5359 36.1934 20.5359 39.2957C20.5359 39.9806 21.1058 40.5341 21.8108 40.5341C22.5146 40.5341 23.0858 39.9806 23.0858 39.2957C23.0858 38.6827 23.0858 36.8188 26.9106 36.8188H39.2584C39.5389 36.8362 40.0833 36.861 40.7705 36.8362L41.5087 36.8486C41.612 36.8498 41.7089 36.8498 41.8122 36.851C42.6791 36.8659 43.5321 36.8746 44.3735 36.8783C44.5686 36.8795 44.7726 36.8845 44.9651 36.8845C45.178 36.8845 45.382 36.8808 45.5924 36.8795C45.7556 36.8783 45.9188 36.8771 46.082 36.8758C46.597 36.8709 47.1019 36.8597 47.6004 36.8449C47.7534 36.8399 47.909 36.8374 48.0607 36.8312C48.6905 36.8089 49.3063 36.7792 49.8966 36.7359C49.917 36.7334 49.9336 36.7322 49.954 36.7297C50.5035 36.6888 51.0326 36.6356 51.5426 36.5736C51.7147 36.5526 51.8766 36.5266 52.0423 36.503C52.398 36.4523 52.7436 36.3953 53.075 36.3321C53.2497 36.2987 53.4218 36.2628 53.5901 36.2244C53.9089 36.1538 54.2097 36.0721 54.5004 35.9854C54.6394 35.9445 54.7835 35.9074 54.9148 35.8615C55.319 35.7241 55.7014 35.5742 56.0393 35.3996L63.2733 31.1047C63.2797 31.101 63.2835 31.0961 63.2899 31.0923L67.0268 28.8718C72.2834 26.1881 72.8125 26.9089 73.8694 28.3381C74.2213 28.8136 74.1308 29.4824 73.6642 29.8688ZM6.51145 52.1602C6.51145 52.579 6.17197 52.9185 5.75319 52.9185H3.44487C3.0261 52.9185 2.68661 52.579 2.68661 52.1602V26.4312C2.68661 26.0124 3.0261 25.673 3.44487 25.673H5.75319C6.17197 25.673 6.51145 26.0124 6.51145 26.4312V27.5405V51.68V52.1602ZM15.83 22.645C15.6368 22.7027 15.4361 22.5495 15.4361 22.3479V5.90633C15.4361 5.48361 15.9386 5.34921 16.2576 5.62651L35.1213 22.0221C36.0507 22.8295 37.2185 23.2345 38.3851 23.2345C39.5517 23.2345 40.717 22.8295 41.6477 22.0221L60.5127 5.62642C60.8311 5.34969 61.3342 5.48447 61.3342 5.90633V28.922C61.3342 29.1896 61.1931 29.4373 60.9631 29.574L54.7758 33.2484C53.3525 33.9829 50.6267 34.269 47.8012 34.3663C47.2334 34.3858 46.8379 33.7666 46.8543 33.1988C46.8799 32.3139 46.5232 31.331 45.7862 30.2613C43.7883 27.3659 40.3638 25.6383 36.6231 25.6383H31.6496C28.9492 25.6383 26.356 24.8283 24.3454 23.3558C24.1044 23.18 23.8533 23.0289 23.5996 22.8902C23.5103 22.8419 23.4211 22.7973 23.3305 22.7527C23.1508 22.6648 22.9685 22.5855 22.7823 22.5149C22.5911 22.4394 22.3935 22.3762 22.192 22.3168C22.062 22.2796 21.9307 22.24 21.7981 22.2103C21.6106 22.1657 21.4194 22.1298 21.2256 22.1001C21.1899 22.0939 21.1542 22.0902 21.1198 22.0852C19.7199 21.8834 18.1364 22.0171 16.3757 22.4902C16.1934 22.5385 16.0124 22.5905 15.83 22.645ZM58.7345 3.38116C58.931 3.38116 58.9986 3.6188 58.8504 3.74766L39.9482 20.1768C39.0557 20.9508 37.7132 20.9508 36.822 20.1768L17.9196 3.74848C17.7709 3.61929 17.8387 3.38116 18.0357 3.38116H58.7345ZM75.9412 26.894C73.7049 23.8698 71.4394 23.8203 65.7684 26.7194L65.0296 27.1584C64.5241 27.4587 63.884 27.0944 63.884 26.5065V5.90633C63.884 4.49204 63.2695 3.21893 62.2955 2.30868C62.2904 2.30373 62.2891 2.29753 62.284 2.29258C62.2266 2.23933 62.159 2.20217 62.1004 2.1514C61.9193 1.99907 61.7383 1.84798 61.5381 1.72166C61.4374 1.65726 61.3278 1.61144 61.2232 1.55571C61.0435 1.45788 60.8688 1.35632 60.6763 1.28078C60.5195 1.21762 60.3537 1.18047 60.1918 1.13341C60.0401 1.09006 59.8947 1.03309 59.7366 1.00337C59.409 0.940211 59.0737 0.904297 58.7345 0.904297H18.0357C17.6953 0.904297 17.36 0.940211 17.0323 1.00337C16.8755 1.03309 16.7301 1.09006 16.5772 1.13341C16.4152 1.18047 16.2495 1.21762 16.0927 1.28078C15.9014 1.35632 15.7255 1.45788 15.5457 1.55571C15.4425 1.61144 15.3328 1.65726 15.2321 1.72166C15.0306 1.84798 14.8496 1.99907 14.6698 2.1514C14.6099 2.20217 14.5423 2.23933 14.485 2.29258C14.4799 2.29753 14.4786 2.30373 14.4735 2.30868C13.4994 3.21893 12.8862 4.49204 12.8862 5.90633V23.2616C12.8862 23.5601 12.7106 23.8301 12.4404 23.957C11.6435 24.3315 10.8986 24.7247 10.2314 25.1028C9.7147 25.3956 9.06134 25.0295 9.06134 24.4357V23.968C9.06134 23.544 8.71353 23.2023 8.28952 23.2099L0.881405 23.3425C0.467987 23.3499 0.136719 23.6872 0.136719 24.1007V54.6371C0.136719 55.0559 0.476202 55.3953 0.894976 55.3953H8.30309C8.72186 55.3953 9.06134 55.0559 9.06134 54.6371V52.4383C9.06134 52.0195 9.40083 51.68 9.8196 51.68H25.6356C28.2404 51.68 30.8642 51.4881 33.4332 51.1067L49.9591 48.6682C50.5609 48.6608 51.1716 48.5902 51.7134 48.4713C53.2357 48.2645 54.6891 47.5573 55.9233 46.4279L75.2489 31.8094L75.2795 31.7871C76.7827 30.5759 77.0734 28.4272 75.9412 26.894Z" fill="black" stroke="white" stroke-width="0.5" mask="url(#path-1-inside-1)"/>
</svg>
