<svg width="61" height="61" viewBox="0 0 61 61" fill="none" xmlns="http://www.w3.org/2000/svg">
<mask id="path-1-inside-1" fill="white">
<path d="M56.1466 22.2142H54.2881C53.8491 22.2142 53.4641 21.9266 53.3039 21.5178C53.1662 21.1666 53.0144 20.8242 52.865 20.4852C52.7016 20.1144 52.7863 19.6835 53.0729 19.3969L54.4363 18.0335C56.0832 16.3865 56.0832 13.7261 54.4363 12.1425L48.6086 6.31483C46.9617 4.66788 44.3012 4.66788 42.7176 6.31483L41.3903 7.64216C41.086 7.94652 40.6223 8.01895 40.2297 7.84248C39.9037 7.69592 39.5743 7.56086 39.2368 7.4373C38.8246 7.28638 38.5369 6.90208 38.5369 6.46307V4.60454C38.5369 2.32415 36.6366 0.423828 34.3562 0.423828H26.1215C23.8411 0.423828 21.9408 2.32415 21.9408 4.60454V6.51485C21.9408 6.92862 21.6856 7.29901 21.3013 7.45224C20.9313 7.59972 20.5715 7.7472 20.2154 7.89469C19.841 8.04973 19.41 7.9648 19.1235 7.67827L17.7601 6.31483C16.9366 5.5547 15.9231 5.11129 14.7829 5.11129C13.6427 5.11129 12.6292 5.5547 11.8057 6.31483L6.04139 12.1425C5.28126 12.9026 4.83786 13.9795 4.83786 15.1197C4.83786 16.2599 5.28126 17.2734 6.04139 18.0968L7.36872 19.4242C7.67308 19.7285 7.74551 20.1922 7.56904 20.5848C7.42249 20.9108 7.28743 21.2402 7.16387 21.5777C7.01294 21.9899 6.62864 22.2775 6.18964 22.2775H4.3311C2.05071 22.2775 0.150391 24.1779 0.150391 26.4583V34.6297C0.150391 36.91 2.05071 38.8104 4.3311 38.8104H6.24141C6.65518 38.8104 7.02558 39.0655 7.1788 39.4498C7.32628 39.8198 7.47377 40.1796 7.62125 40.5357C7.7763 40.9101 7.69137 41.3411 7.40483 41.6276L6.04139 42.9911C5.28126 43.7512 4.83786 44.8281 4.83786 45.9682C4.83786 47.1084 5.28126 48.1219 6.04139 48.9454L11.8057 54.7731C13.4527 56.42 16.1131 56.42 17.6967 54.7731L19.024 53.4458C19.3284 53.1414 19.7921 53.069 20.1846 53.2454C20.5107 53.392 20.84 53.527 21.1775 53.6506C21.5898 53.8015 21.8774 54.1858 21.8774 54.6248V56.4834C21.8774 58.7638 23.7777 60.6641 26.0581 60.6641H34.2295C36.5099 60.6641 38.4102 58.7638 38.4102 56.4834V54.5731C38.4102 54.1593 38.6654 53.7889 39.0497 53.6357C39.4197 53.4882 39.7795 53.3407 40.1356 53.1932C40.51 53.0382 40.941 53.1231 41.2275 53.4096L42.591 54.7731C44.2379 56.42 46.8984 56.42 48.482 54.7731L54.2463 49.0088C55.0697 48.2486 55.4498 47.1718 55.4498 46.0316C55.4498 44.8914 55.0064 43.8779 54.2463 43.0544L52.9189 41.7271C52.6146 41.4227 52.5422 40.9591 52.7186 40.5665C52.8652 40.2404 53.0002 39.9111 53.1238 39.5736C53.2747 39.1614 53.659 38.8737 54.098 38.8737H55.9566C58.2369 38.8737 60.1373 36.9734 60.1373 34.693V26.3949C60.3273 24.0512 58.427 22.2142 56.1466 22.2142ZM55.7032 34.1862H51.8392C50.8257 34.1862 49.8755 34.883 49.6221 35.8965C49.1787 37.5435 48.5453 39.0637 47.7218 40.4573C47.2151 41.3441 47.3418 42.4843 48.1019 43.2444L50.1186 45.2611C50.5091 45.6517 50.5091 46.2848 50.1186 46.6754L46.3386 50.4554C45.9481 50.8459 45.3149 50.8459 44.9244 50.4554L42.9077 48.4387C42.1475 47.6785 41.0707 47.5518 40.1205 48.0586C38.727 48.8821 37.2067 49.5155 35.5598 49.9589C34.5462 50.2123 33.8495 51.1625 33.8495 52.176V55.04C33.8495 55.5922 33.4017 56.04 32.8495 56.04H27.5649C27.0126 56.04 26.5649 55.5922 26.5649 55.04V52.176C26.5649 51.1625 25.8681 50.2123 24.8546 49.9589C23.2077 49.5155 21.6874 48.8821 20.2938 48.0586C19.407 47.5518 18.2668 47.6785 17.5067 48.4387L15.49 50.4554C15.0995 50.8459 14.4663 50.8459 14.0758 50.4554L10.2958 46.6754C9.90525 46.2848 9.90525 45.6517 10.2958 45.2611L12.3125 43.2444C13.0726 42.4843 13.1993 41.4075 12.6925 40.4573C11.8691 39.0637 11.2356 37.5435 10.7922 35.8965C10.5388 34.883 9.58867 34.1862 8.57516 34.1862H5.77451C5.22223 34.1862 4.77451 33.7385 4.77451 33.1862V27.8383C4.77451 27.286 5.22223 26.8383 5.77451 26.8383H8.6385C9.65201 26.8383 10.6022 26.1415 10.8555 25.128C11.299 23.5444 11.9324 21.9608 12.7559 20.5673C13.2626 19.6804 13.1359 18.5402 12.3758 17.7801L10.3591 15.7634C9.96859 15.3729 9.96859 14.7397 10.3591 14.3492L14.1391 10.5692C14.5296 10.1787 15.1628 10.1787 15.5533 10.5692L17.57 12.5859C18.3302 13.346 19.407 13.4727 20.3572 12.966C21.7507 12.1425 23.271 11.509 24.9179 11.0656C25.9314 10.8123 26.6282 9.8621 26.6282 8.8486V6.04795C26.6282 5.49566 27.0759 5.04795 27.6282 5.04795H32.9762C33.5284 5.04795 33.9762 5.49566 33.9762 6.04795V8.91194C33.9762 9.92545 34.6729 10.8756 35.6864 11.129C37.3334 11.5724 38.8536 12.2058 40.2472 13.0293C41.134 13.5361 42.2742 13.4094 43.0344 12.6492L45.0511 10.6326C45.4416 10.242 46.0747 10.242 46.4653 10.6326L50.2453 14.4126C50.6358 14.8031 50.6358 15.4362 50.2453 15.8268L48.2286 17.8435C47.4684 18.6036 47.3418 19.6804 47.8485 20.6306C48.672 22.0242 49.3054 23.5444 49.7488 25.1914C50.0022 26.2049 50.9524 26.9017 51.9659 26.9017H54.8299C55.3822 26.9017 55.8299 27.3494 55.8299 27.9017V34.0596C55.8299 34.1295 55.7732 34.1862 55.7032 34.1862Z"/>
</mask>
<path d="M56.1466 22.2142H54.2881C53.8491 22.2142 53.4641 21.9266 53.3039 21.5178C53.1662 21.1666 53.0144 20.8242 52.865 20.4852C52.7016 20.1144 52.7863 19.6835 53.0729 19.3969L54.4363 18.0335C56.0832 16.3865 56.0832 13.7261 54.4363 12.1425L48.6086 6.31483C46.9617 4.66788 44.3012 4.66788 42.7176 6.31483L41.3903 7.64216C41.086 7.94652 40.6223 8.01895 40.2297 7.84248C39.9037 7.69592 39.5743 7.56086 39.2368 7.4373C38.8246 7.28638 38.5369 6.90208 38.5369 6.46307V4.60454C38.5369 2.32415 36.6366 0.423828 34.3562 0.423828H26.1215C23.8411 0.423828 21.9408 2.32415 21.9408 4.60454V6.51485C21.9408 6.92862 21.6856 7.29901 21.3013 7.45224C20.9313 7.59972 20.5715 7.7472 20.2154 7.89469C19.841 8.04973 19.41 7.9648 19.1235 7.67827L17.7601 6.31483C16.9366 5.5547 15.9231 5.11129 14.7829 5.11129C13.6427 5.11129 12.6292 5.5547 11.8057 6.31483L6.04139 12.1425C5.28126 12.9026 4.83786 13.9795 4.83786 15.1197C4.83786 16.2599 5.28126 17.2734 6.04139 18.0968L7.36872 19.4242C7.67308 19.7285 7.74551 20.1922 7.56904 20.5848C7.42249 20.9108 7.28743 21.2402 7.16387 21.5777C7.01294 21.9899 6.62864 22.2775 6.18964 22.2775H4.3311C2.05071 22.2775 0.150391 24.1779 0.150391 26.4583V34.6297C0.150391 36.91 2.05071 38.8104 4.3311 38.8104H6.24141C6.65518 38.8104 7.02558 39.0655 7.1788 39.4498C7.32628 39.8198 7.47377 40.1796 7.62125 40.5357C7.7763 40.9101 7.69137 41.3411 7.40483 41.6276L6.04139 42.9911C5.28126 43.7512 4.83786 44.8281 4.83786 45.9682C4.83786 47.1084 5.28126 48.1219 6.04139 48.9454L11.8057 54.7731C13.4527 56.42 16.1131 56.42 17.6967 54.7731L19.024 53.4458C19.3284 53.1414 19.7921 53.069 20.1846 53.2454C20.5107 53.392 20.84 53.527 21.1775 53.6506C21.5898 53.8015 21.8774 54.1858 21.8774 54.6248V56.4834C21.8774 58.7638 23.7777 60.6641 26.0581 60.6641H34.2295C36.5099 60.6641 38.4102 58.7638 38.4102 56.4834V54.5731C38.4102 54.1593 38.6654 53.7889 39.0497 53.6357C39.4197 53.4882 39.7795 53.3407 40.1356 53.1932C40.51 53.0382 40.941 53.1231 41.2275 53.4096L42.591 54.7731C44.2379 56.42 46.8984 56.42 48.482 54.7731L54.2463 49.0088C55.0697 48.2486 55.4498 47.1718 55.4498 46.0316C55.4498 44.8914 55.0064 43.8779 54.2463 43.0544L52.9189 41.7271C52.6146 41.4227 52.5422 40.9591 52.7186 40.5665C52.8652 40.2404 53.0002 39.9111 53.1238 39.5736C53.2747 39.1614 53.659 38.8737 54.098 38.8737H55.9566C58.2369 38.8737 60.1373 36.9734 60.1373 34.693V26.3949C60.3273 24.0512 58.427 22.2142 56.1466 22.2142ZM55.7032 34.1862H51.8392C50.8257 34.1862 49.8755 34.883 49.6221 35.8965C49.1787 37.5435 48.5453 39.0637 47.7218 40.4573C47.2151 41.3441 47.3418 42.4843 48.1019 43.2444L50.1186 45.2611C50.5091 45.6517 50.5091 46.2848 50.1186 46.6754L46.3386 50.4554C45.9481 50.8459 45.3149 50.8459 44.9244 50.4554L42.9077 48.4387C42.1475 47.6785 41.0707 47.5518 40.1205 48.0586C38.727 48.8821 37.2067 49.5155 35.5598 49.9589C34.5462 50.2123 33.8495 51.1625 33.8495 52.176V55.04C33.8495 55.5922 33.4017 56.04 32.8495 56.04H27.5649C27.0126 56.04 26.5649 55.5922 26.5649 55.04V52.176C26.5649 51.1625 25.8681 50.2123 24.8546 49.9589C23.2077 49.5155 21.6874 48.8821 20.2938 48.0586C19.407 47.5518 18.2668 47.6785 17.5067 48.4387L15.49 50.4554C15.0995 50.8459 14.4663 50.8459 14.0758 50.4554L10.2958 46.6754C9.90525 46.2848 9.90525 45.6517 10.2958 45.2611L12.3125 43.2444C13.0726 42.4843 13.1993 41.4075 12.6925 40.4573C11.8691 39.0637 11.2356 37.5435 10.7922 35.8965C10.5388 34.883 9.58867 34.1862 8.57516 34.1862H5.77451C5.22223 34.1862 4.77451 33.7385 4.77451 33.1862V27.8383C4.77451 27.286 5.22223 26.8383 5.77451 26.8383H8.6385C9.65201 26.8383 10.6022 26.1415 10.8555 25.128C11.299 23.5444 11.9324 21.9608 12.7559 20.5673C13.2626 19.6804 13.1359 18.5402 12.3758 17.7801L10.3591 15.7634C9.96859 15.3729 9.96859 14.7397 10.3591 14.3492L14.1391 10.5692C14.5296 10.1787 15.1628 10.1787 15.5533 10.5692L17.57 12.5859C18.3302 13.346 19.407 13.4727 20.3572 12.966C21.7507 12.1425 23.271 11.509 24.9179 11.0656C25.9314 10.8123 26.6282 9.8621 26.6282 8.8486V6.04795C26.6282 5.49566 27.0759 5.04795 27.6282 5.04795H32.9762C33.5284 5.04795 33.9762 5.49566 33.9762 6.04795V8.91194C33.9762 9.92545 34.6729 10.8756 35.6864 11.129C37.3334 11.5724 38.8536 12.2058 40.2472 13.0293C41.134 13.5361 42.2742 13.4094 43.0344 12.6492L45.0511 10.6326C45.4416 10.242 46.0747 10.242 46.4653 10.6326L50.2453 14.4126C50.6358 14.8031 50.6358 15.4362 50.2453 15.8268L48.2286 17.8435C47.4684 18.6036 47.3418 19.6804 47.8485 20.6306C48.672 22.0242 49.3054 23.5444 49.7488 25.1914C50.0022 26.2049 50.9524 26.9017 51.9659 26.9017H54.8299C55.3822 26.9017 55.8299 27.3494 55.8299 27.9017V34.0596C55.8299 34.1295 55.7732 34.1862 55.7032 34.1862Z" fill="black" stroke="white" stroke-width="2" mask="url(#path-1-inside-1)"/>
<path d="M26.1369 24.8444L26.1367 24.8444L26.1348 24.8558C26.0495 25.3679 25.5672 25.7682 25.0444 25.7682H23.0174C22.7182 25.7682 22.4171 25.6409 22.198 25.378C21.9663 25.1001 21.8866 24.797 21.9288 24.502C22.1696 22.8159 22.9223 21.0033 24.2774 19.6184C25.6228 18.2434 27.5837 17.2666 30.302 17.2666C33.6139 17.2666 36.3447 18.8849 37.7094 21.6143C38.9577 24.1108 38.717 27.077 37.1202 29.2662C36.093 30.6555 35.0074 31.4412 34.1981 32.0015L34.1981 32.0015L34.1921 32.0057C34.1801 32.0143 34.1681 32.0228 34.1562 32.0314C33.7495 32.3216 33.3895 32.5786 33.1447 32.9561C32.8853 33.356 32.7828 33.8396 32.7181 34.5189L32.718 34.5189L32.7173 34.528C32.6743 35.0863 32.199 35.5232 31.6322 35.5232H29.6685C29.3833 35.5232 29.1246 35.4056 28.8819 35.1629C28.6514 34.9325 28.5434 34.6393 28.5799 34.3836L28.5818 34.3702L28.583 34.3566C28.7358 32.6148 29.1593 31.4641 29.7214 30.6138C30.2863 29.7592 31.0156 29.1693 31.8566 28.5774L31.8692 28.5686L31.8812 28.559C31.9786 28.481 32.0766 28.4047 32.1753 28.3278C32.6937 27.924 33.2311 27.5054 33.8022 26.7631L33.8098 26.7532L33.8169 26.7429C34.4959 25.7621 34.5616 24.5582 34.049 23.4597L34.0491 23.4596L34.0431 23.4475C33.6567 22.6747 32.6131 21.4608 30.3653 21.4608C28.9228 21.4608 27.9162 21.9119 27.238 22.5995C26.5724 23.2743 26.2737 24.126 26.1369 24.8444Z" fill="black" stroke="white"/>
<path d="M33.2224 41.1537C33.2224 42.5917 32.0566 43.7575 30.6185 43.7575C29.1804 43.7575 28.0146 42.5917 28.0146 41.1537C28.0146 39.7156 29.1804 38.5498 30.6185 38.5498C32.0566 38.5498 33.2224 39.7156 33.2224 41.1537Z" fill="black" stroke="white"/>
</svg>
