<svg width="61" height="59" viewBox="0 0 61 59" fill="none" xmlns="http://www.w3.org/2000/svg">
<path d="M54.7087 0.858348L54.7093 0.857816C55.0438 0.533252 55.5921 0.529885 55.9367 0.859029C55.9371 0.859347 55.9374 0.859666 55.9377 0.859985L59.651 4.46259C59.8144 4.62104 59.9004 4.82854 59.9004 5.03957C59.9004 5.25172 59.8138 5.45623 59.6558 5.60555L59.6557 5.60551L59.6505 5.61061L58.1282 7.09206C57.5697 7.6356 57.5703 8.53307 58.1297 9.07574C58.7223 9.65067 58.7223 10.5777 58.1297 11.1526L50.3094 18.7398C50.0182 19.0223 49.8538 19.4107 49.8538 19.8164V43.0347C49.8538 43.8632 50.5254 44.5347 51.3538 44.5347H57.6421C57.8421 44.5347 57.9773 44.581 58.0742 44.6419C58.1729 44.704 58.2606 44.7997 58.3354 44.9403C58.4928 45.2362 58.5654 45.6785 58.5654 46.1966C58.5654 46.7212 58.4896 47.0386 58.365 47.2191C58.2699 47.357 58.0943 47.4892 57.6421 47.4892H51.3532C50.5248 47.4892 49.8532 48.1608 49.8532 48.9892V55.0608C49.8532 55.4534 49.7176 55.629 49.5335 55.7401C49.302 55.8797 48.9233 55.9552 48.3847 55.9552C47.8522 55.9552 47.4269 55.8809 47.1508 55.7297C47.0206 55.6584 46.9335 55.5754 46.8767 55.4815C46.8205 55.3885 46.7772 55.2568 46.7772 55.0608V48.9892C46.7772 48.1608 46.1056 47.4892 45.2772 47.4892H21.2838C20.8938 47.4892 20.5192 47.6411 20.2393 47.9127L16.8147 51.2352L16.8147 51.2351L16.8083 51.2415C16.6931 51.3573 16.554 51.4515 16.3905 51.5312L3.03846 57.748C2.81245 57.8461 2.58378 57.8949 2.36075 57.8949C2.19958 57.8949 2.14724 57.862 2.09637 57.8222C2.05568 57.7904 2.00956 57.7455 1.93715 57.6689C1.92235 57.6532 1.90631 57.6361 1.88916 57.6178C1.82922 57.5538 1.7557 57.4752 1.67406 57.3946L1.67099 57.3916C1.38824 57.1173 1.14256 56.8103 1.00776 56.5118C0.876339 56.2209 0.868585 55.986 0.968541 55.7831C0.968605 55.783 0.968668 55.7828 0.968732 55.7827L7.32684 42.932L7.33267 42.9203L7.33788 42.9082C7.41173 42.7368 7.52731 42.5683 7.6775 42.4215L7.80823 42.3015L7.81352 42.2967L7.81867 42.2917L11.0884 39.1129C11.3789 38.8304 11.5428 38.4425 11.5428 38.0373V14.8048C11.5428 13.9763 10.8713 13.3048 10.0428 13.3048H3.75392C3.53998 13.3048 3.43713 13.2602 3.38727 13.2264C3.34073 13.1949 3.29418 13.1417 3.25373 13.0284C3.21054 12.9074 3.1831 12.7415 3.16959 12.5175C3.15754 12.3178 3.15768 12.1006 3.15785 11.8558C3.15787 11.8269 3.15789 11.7976 3.15789 11.7679C3.15789 11.7389 3.15787 11.7103 3.15785 11.6822C3.1577 11.4377 3.15756 11.2278 3.16959 11.0385C3.18304 10.8266 3.21006 10.6806 3.24919 10.5799C3.28395 10.4903 3.32241 10.4502 3.36619 10.4236C3.41865 10.3918 3.52896 10.3503 3.75392 10.3503H10.0422C10.8706 10.3503 11.5422 9.67868 11.5422 8.85026V2.77865C11.5422 2.56512 11.5833 2.46662 11.6112 2.42306C11.6345 2.38678 11.6732 2.34908 11.7696 2.31445C11.8765 2.27609 12.0297 2.25082 12.2497 2.23883C12.4352 2.22873 12.6387 2.22901 12.8733 2.22934C12.9161 2.2294 12.9599 2.22946 13.0048 2.22946C13.0331 2.22946 13.061 2.22945 13.0885 2.22944C13.6507 2.22923 14.0515 2.22908 14.3304 2.31949C14.4567 2.36046 14.5133 2.40795 14.5438 2.44937C14.5742 2.49077 14.6182 2.58008 14.6182 2.77865V8.85026C14.6182 9.67868 15.2898 10.3503 16.1182 10.3503H40.1262C40.5162 10.3503 40.8908 10.1984 41.1707 9.92684L48.9971 2.33381L49.0005 2.33044C49.2822 2.05187 49.6706 1.89529 50.0888 1.89529C50.501 1.89529 50.8954 2.05229 51.1774 2.33076L51.1806 2.33379C51.7378 2.87443 52.6236 2.87511 53.1817 2.33533L54.7087 0.858348ZM19.0871 44.8418L19.0872 44.8417L47.2234 17.5379L47.2235 17.5378L53.7664 11.1905C54.3739 10.6012 54.3738 9.62644 53.7664 9.0372L51.1333 6.48303C50.5514 5.91856 49.6263 5.9186 49.0444 6.48312L42.4651 12.8663L42.4651 12.8663L11.5698 42.8468C10.9625 43.4361 10.9626 44.4107 11.5699 44.9999L14.2018 47.5533C14.7842 48.1183 15.7101 48.1178 16.2919 47.5523L18.9446 44.9736L18.9468 44.9715C18.9614 44.957 18.9774 44.9425 19.0018 44.9206L19.0061 44.9167C19.0279 44.8971 19.0573 44.8707 19.0871 44.8418ZM16.1182 13.3048C15.2898 13.3048 14.6182 13.9763 14.6182 14.8048V32.1419C14.6182 33.4673 16.2114 34.1414 17.1627 33.2185L35.0326 15.8813C35.9996 14.9432 35.3354 13.3048 33.9881 13.3048H16.1182ZM7.5204 49.4301C6.8925 50.7 8.21271 52.0523 9.49732 51.4552L11.7953 50.3869C12.7495 49.9433 12.9623 48.6808 12.2062 47.9489L11.0093 46.7903C10.2791 46.0834 9.07198 46.2922 8.62148 47.2033L7.5204 49.4301ZM26.3768 41.9582C25.4098 42.8964 26.0739 44.5348 27.4212 44.5348L45.2778 44.5354C46.1062 44.5354 46.7778 43.8638 46.7778 43.0354V25.7112C46.7778 24.3858 45.1847 23.7117 44.2334 24.6346L26.3768 41.9582ZM55.261 5.90218C55.7276 6.35662 56.4708 6.35853 56.9398 5.9065C57.4309 5.43313 57.4322 4.64704 56.9426 4.17206L56.1577 3.41053C55.6901 2.95688 54.9467 2.95687 54.4791 3.41053C53.9916 3.88341 53.9909 4.66541 54.4775 5.1392L55.261 5.90218Z" fill="black" stroke="white"/>
</svg>
