<svg width="72" height="71" viewBox="0 0 72 71" fill="none" xmlns="http://www.w3.org/2000/svg">
<path d="M17.4368 30.7512L17.4375 30.7485C19.1019 24.016 24.6304 18.6781 31.5288 17.1213C37.4561 15.7837 43.5238 17.0481 48.2225 20.6788C52.8491 24.3139 55.5753 29.7235 55.6521 35.5756C55.651 41.4192 52.8528 46.9004 47.9968 50.5361L47.9886 50.5423L47.9807 50.5488C47.3677 51.0483 47.0965 51.818 47.0965 52.6097V63.1059C47.0965 64.9489 45.5421 66.4849 43.6298 66.4849H41.141H40.7875L40.6696 66.8181C40.0339 68.6139 38.344 69.9837 36.241 69.9837C34.1296 69.9837 32.4478 68.6824 31.8142 66.8236L31.6988 66.4849H31.341H28.8521C26.9398 66.4849 25.3854 64.9489 25.3854 63.1059V52.6857C25.3854 51.801 25.0255 50.9633 24.4235 50.4727L24.4158 50.4665L24.408 50.4606C18.1913 45.7899 15.5418 38.2378 17.4368 30.7512ZM42.6965 62.7692H43.1965V62.2692V57.8578V57.3578H42.6965H29.6298H29.1298V57.8578V62.2692V62.7692H29.6298H42.6965ZM42.6187 53.7182H43.1187V53.2182V52.6097C43.1187 50.5584 44.0579 48.7315 45.5609 47.6111C49.4964 44.7047 51.7494 40.3003 51.8298 35.5047L51.8298 35.5047V35.4963C51.8298 30.7736 49.6546 26.4455 45.8793 23.5391C42.1001 20.6297 37.2017 19.6133 32.3968 20.7096C26.8532 21.9668 22.4267 26.2099 21.0565 31.5695L21.0565 31.5695L21.0558 31.5725C19.5299 37.6984 21.7012 43.7573 26.6792 47.5287C28.1888 48.7259 29.1298 50.6328 29.1298 52.6857V53.2182V53.7182H29.6298H42.6187Z" fill="black" stroke="white"/>
<path d="M63.1528 33.5625H70.6973C70.9652 33.5625 71.088 33.6169 71.1444 33.6569C71.1945 33.6924 71.2444 33.7532 71.2836 33.8922C71.3255 34.041 71.3443 34.2417 71.348 34.5134C71.3502 34.6716 71.3478 34.8214 71.3452 34.9839C71.343 35.117 71.3407 35.2587 71.3407 35.4203C71.3407 35.582 71.343 35.7237 71.3452 35.8568C71.3478 36.0192 71.3502 36.1691 71.348 36.3273C71.3443 36.599 71.3255 36.7997 71.2836 36.9485C71.2444 37.0874 71.1945 37.1483 71.1444 37.1838C71.088 37.2238 70.9652 37.2782 70.6973 37.2782H63.1528C62.875 37.2782 62.7327 37.2288 62.6602 37.1852C62.5992 37.1485 62.5509 37.0945 62.5105 36.9836C62.4653 36.8592 62.4379 36.683 62.4263 36.4303C62.4177 36.2407 62.4185 36.037 62.4195 35.8051C62.4198 35.7271 62.4202 35.646 62.4202 35.5612C62.4202 35.4781 62.4198 35.3972 62.4195 35.3184C62.4185 35.0787 62.4176 34.8576 62.4264 34.6461C62.4381 34.366 62.4659 34.1446 62.5184 33.9744C62.5692 33.8097 62.6339 33.7225 62.7025 33.671C62.7707 33.6198 62.8981 33.5625 63.1528 33.5625Z" fill="black" stroke="white"/>
<path d="M53.8531 15.6435L59.0904 10.3331C59.2745 10.1465 59.3971 10.0994 59.4633 10.0879C59.5235 10.0775 59.6044 10.0843 59.7367 10.1547C59.8772 10.2295 60.0393 10.3568 60.2422 10.543C60.3602 10.6514 60.4692 10.7575 60.5872 10.8723C60.6838 10.9663 60.7864 11.0662 60.9049 11.178C61.0234 11.2897 61.1291 11.3864 61.2287 11.4774C61.3504 11.5885 61.4627 11.6912 61.5777 11.8026C61.7754 11.9941 61.9113 12.1479 61.9928 12.2825C62.0696 12.4093 62.0795 12.4881 62.071 12.5473C62.0616 12.6125 62.018 12.734 61.8339 12.9206L56.5966 18.231C56.4053 18.425 56.2725 18.4891 56.1926 18.5092C56.1249 18.5263 56.0507 18.5235 55.9382 18.4736C55.8132 18.4182 55.6629 18.3139 55.4684 18.1462C55.3226 18.0204 55.1728 17.8779 55.0026 17.7161C54.9456 17.6619 54.8862 17.6054 54.8239 17.5467C54.7629 17.4891 54.7032 17.4333 54.6451 17.3789C54.4678 17.2131 54.304 17.0598 54.1541 16.9065C53.9557 16.7035 53.8109 16.5289 53.7211 16.3722C53.6338 16.2197 53.6146 16.1122 53.6243 16.0287C53.6337 15.9471 53.6785 15.8205 53.8531 15.6435Z" fill="black" stroke="white"/>
<path d="M34.252 8.98675V1.60898C34.252 1.35236 34.3061 1.23821 34.3443 1.18669C34.3798 1.13886 34.4438 1.08767 34.5918 1.04778C34.7479 1.00571 34.9565 0.98732 35.2351 0.983631C35.397 0.981487 35.5513 0.983871 35.7181 0.986447C35.8544 0.988552 35.9991 0.990787 36.1631 0.990787C36.327 0.990787 36.4717 0.988552 36.608 0.986447C36.7748 0.983871 36.9291 0.981487 37.091 0.983631C37.3696 0.98732 37.5783 1.00571 37.7343 1.04777C37.8823 1.08767 37.9463 1.13886 37.9818 1.18669C38.02 1.23821 38.0742 1.35236 38.0742 1.60898V8.98675C38.0742 9.25408 38.0246 9.38761 37.9827 9.4543C37.9468 9.5113 37.8912 9.56066 37.7721 9.60211C37.6409 9.64777 37.457 9.67477 37.1973 9.68611C37.0026 9.69462 36.7931 9.69377 36.5557 9.69281C36.4761 9.69249 36.3934 9.69215 36.3071 9.69215C36.2225 9.69215 36.14 9.69248 36.0596 9.6928C35.8142 9.69377 35.587 9.69467 35.3699 9.68603C35.0824 9.6746 34.8528 9.64718 34.6752 9.59477C34.5017 9.54357 34.4107 9.47827 34.3586 9.4119C34.3086 9.34825 34.252 9.22953 34.252 8.98675Z" fill="black" stroke="white"/>
<path d="M15.7282 17.9795L10.3766 12.7791C10.1884 12.5963 10.1421 12.4756 10.1313 12.4106C10.1215 12.3516 10.1297 12.2726 10.2036 12.1444C10.2821 12.0082 10.4147 11.8517 10.6081 11.6561C10.7206 11.5423 10.8307 11.4373 10.9499 11.3237C11.0475 11.2307 11.1511 11.1318 11.2672 11.0176C11.3833 10.9034 11.4837 10.8014 11.5782 10.7054C11.6936 10.5881 11.8003 10.4798 11.9159 10.369C12.1147 10.1787 12.2739 10.048 12.4127 9.97039C12.5433 9.89733 12.624 9.88881 12.6844 9.89801C12.751 9.90816 12.8747 9.9527 13.0628 10.1355L18.4145 15.3358C18.61 15.5259 18.6737 15.6567 18.6931 15.7352C18.7095 15.8018 18.7055 15.8742 18.6529 15.9834C18.5945 16.1047 18.4856 16.25 18.3112 16.4377C18.1804 16.5784 18.0326 16.7228 17.8646 16.8867C17.8082 16.9417 17.7496 16.9989 17.6886 17.0589C17.6288 17.1178 17.5709 17.1752 17.5144 17.2313C17.3422 17.4021 17.1831 17.56 17.0241 17.7043C16.8136 17.8953 16.633 18.0342 16.4714 18.1196C16.3143 18.2026 16.2042 18.2198 16.1189 18.2091C16.0356 18.1986 15.9067 18.1529 15.7282 17.9795Z" fill="black" stroke="white"/>
<path d="M1.67137 33.5625H9.21582C9.48373 33.5625 9.60657 33.6169 9.66297 33.6569C9.71308 33.6924 9.76297 33.7532 9.80213 33.8922C9.84407 34.041 9.86283 34.2417 9.8666 34.5134C9.86879 34.6716 9.86636 34.8214 9.86373 34.9839C9.86157 35.117 9.85927 35.2587 9.85927 35.4203C9.85927 35.582 9.86157 35.7237 9.86373 35.8568C9.86636 36.0192 9.86879 36.1691 9.8666 36.3273C9.86283 36.599 9.84407 36.7997 9.80213 36.9485C9.76297 37.0874 9.71308 37.1483 9.66297 37.1838C9.60657 37.2238 9.48373 37.2782 9.21582 37.2782H1.67137C1.39354 37.2782 1.25124 37.2288 1.17875 37.1852C1.11772 37.1485 1.06943 37.0945 1.02908 36.9836C0.983821 36.8592 0.956418 36.683 0.944876 36.4303C0.936218 36.2407 0.93708 36.037 0.938061 35.8051C0.938391 35.7271 0.938735 35.646 0.938735 35.5612C0.938735 35.4781 0.938401 35.3972 0.938075 35.3184C0.937084 35.0787 0.93617 34.8576 0.944965 34.6461C0.95661 34.366 0.984482 34.1446 1.03699 33.9744C1.0878 33.8097 1.15245 33.7225 1.22108 33.671C1.28929 33.6198 1.41665 33.5625 1.67137 33.5625Z" fill="black" stroke="white"/>
<path d="M34.1802 37.2231L34.5297 37.565L34.8793 37.2231L40.5496 31.6781C40.7576 31.4918 40.923 31.4082 41.0533 31.3744C41.1793 31.3417 41.306 31.3467 41.4558 31.3946C41.7946 31.5031 42.1767 31.7987 42.7391 32.2699C43.246 32.7281 43.6127 33.1231 43.7626 33.4796C43.8314 33.6432 43.8445 33.7771 43.8186 33.8981C43.7922 34.0212 43.7144 34.182 43.5135 34.3785L36.0611 41.6663C35.6031 42.0451 35.0981 42.2222 34.6075 42.2222C34.0195 42.2222 33.5289 42.0329 33.1682 41.6802L28.9682 37.573L28.9611 37.566L28.9537 37.5593C28.7519 37.3772 28.6636 37.2221 28.6277 37.0985C28.5928 36.9781 28.5954 36.8463 28.648 36.6859C28.763 36.335 29.0903 35.9223 29.5934 35.4303L29.6005 35.4233L29.6074 35.416C30.0661 34.9301 30.4546 34.6289 30.7944 34.528C30.9506 34.4816 31.0927 34.479 31.2351 34.5202C31.3818 34.5626 31.5601 34.661 31.769 34.8653L32.0487 34.5793L31.769 34.8653L34.1802 37.2231Z" fill="black" stroke="white"/>
</svg>
