<svg width="53" height="59" viewBox="0 0 53 59" fill="none" xmlns="http://www.w3.org/2000/svg">
<path d="M28.4332 13.5191H28.4332V13.5236C28.4332 18.1352 26.0638 22.2891 22.1101 24.7675C21.7043 25.0219 21.4376 25.4669 21.4376 25.9623V56.7954C21.4376 57.4756 20.8899 58.0231 20.1627 58.0231H9.07524C8.34805 58.0231 7.80033 57.4756 7.80033 56.7954V25.9697C7.80033 25.4687 7.52763 25.0202 7.11573 24.7669C3.17232 22.3416 0.804688 18.1341 0.804688 13.5236C0.804688 8.10583 4.07102 3.30544 9.21076 1.18022C9.66132 1.01804 10.1153 1.03779 10.4454 1.26678C10.8097 1.51958 11.0101 1.91901 11.0101 2.30492V10.9209C11.0101 11.6803 11.6257 12.2959 12.3851 12.2959H16.8528C17.6122 12.2959 18.2278 11.6803 18.2278 10.9209V2.30492C18.2278 1.86917 18.4158 1.53395 18.777 1.27767C19.1441 1.08004 19.614 1.03221 20.0273 1.18027C25.1703 3.30689 28.4973 8.10808 28.4332 13.5191ZM19.5853 23.3556L19.5854 23.3558L19.5982 23.3498C23.484 21.4956 25.9494 17.7138 25.9494 13.5236C25.9494 10.6996 24.8493 8.09022 22.9708 6.10783C22.5721 5.68701 22.0266 5.62691 21.5888 5.831C21.1586 6.03155 20.8436 6.4796 20.8436 7.03667V13.5236C20.8436 14.2037 20.2959 14.7512 19.5687 14.7512H9.8012C9.07401 14.7512 8.52629 14.2037 8.52629 13.5236V7.03667C8.52629 6.4796 8.21129 6.03155 7.7811 5.831C7.34334 5.62691 6.79784 5.68701 6.39909 6.10783C4.52061 8.09022 3.42051 10.6996 3.42051 13.5236C3.42051 17.7097 5.8161 21.4938 9.70571 23.3498L9.70559 23.35L9.71856 23.3556C10.173 23.5518 10.4162 23.9279 10.4162 24.4217V54.1928C10.4162 54.9522 11.0318 55.5678 11.7911 55.5678H17.5128C18.2721 55.5678 18.8878 54.9522 18.8878 54.1928V24.4217C18.8878 23.983 19.1389 23.5483 19.5853 23.3556Z" fill="black" stroke="white" stroke-width="0.75"/>
<path d="M38.3977 10.1318L38.3922 10.1219L38.3858 10.1125C38.1812 9.81448 38.1677 9.45496 38.2852 9.05018L40.9204 1.88288C41.1506 1.3284 41.6582 0.952148 42.2714 0.952148H48.0791C48.6924 0.952148 49.2 1.32839 49.4301 1.88287L52.0673 9.05544C52.1715 9.36215 52.1219 9.80049 51.9506 10.1358L49.6385 14.2634C49.5339 14.45 49.479 14.6603 49.479 14.8743V24.7137C49.479 25.3985 50.0342 25.9537 50.719 25.9537C51.5118 25.9537 52.1189 26.5537 52.1189 27.3063V56.7953C52.1189 57.5479 51.5118 58.148 50.719 58.148H39.6316C38.8388 58.148 38.2316 57.5479 38.2316 56.7953V27.3063C38.2316 26.5537 38.8388 25.9537 39.6316 25.9537C40.3164 25.9537 40.8715 25.3985 40.8715 24.7137V14.8743C40.8715 14.6603 40.8166 14.45 40.7121 14.2634L38.3977 10.1318ZM41.421 9.87949L43.5031 13.5778C43.6178 13.8019 43.6713 14.018 43.6713 14.2286V24.7037C43.6713 25.394 44.231 25.9537 44.9213 25.9537H45.4292C46.1196 25.9537 46.6792 25.394 46.6792 24.7037V14.2286C46.6792 14.0176 46.733 13.801 46.8481 13.5765L48.8735 9.87302C49.0459 9.55792 49.0743 9.18391 48.9517 8.84635L47.3654 4.48059C47.1859 3.98645 46.7163 3.65747 46.1906 3.65747H44.094C43.5682 3.65747 43.0987 3.98645 42.9191 4.48059L41.3354 8.83937C41.2109 9.18197 41.2422 9.56185 41.421 9.87949ZM48.0691 55.4427C48.7594 55.4427 49.3191 54.883 49.3191 54.1927V29.8989C49.3191 29.2141 48.7639 28.659 48.0791 28.659H42.2714C41.6231 28.659 41.0975 29.1846 41.0975 29.833V54.1927C41.0975 54.883 41.6571 55.4427 42.3475 55.4427H48.0691Z" fill="black" stroke="white" stroke-width="0.5"/>
</svg>
